<?xml version="1.0" standalone="no"?><!DOCTYPE svg PUBLIC "-//W3C//DTD SVG 1.1//EN" "http://www.w3.org/Graphics/SVG/1.1/DTD/svg11.dtd"><svg t="1729159325128" class="icon" viewBox="0 0 1024 1024" version="1.1" xmlns="http://www.w3.org/2000/svg" p-id="4265" width="256" height="256" xmlns:xlink="http://www.w3.org/1999/xlink"><path d="M512 85.333333c-211.754667 0-384 172.288-384 384v341.333334h2.176c10.453333 72.149333 72.106667 128 147.157333 128 50.090667 0 88.490667-17.792 114.005334-50.090667a170.24 170.24 0 0 0 241.834666-0.597333c25.642667 32.512 64.170667 50.688 113.493334 50.688 82.346667 0 149.333333-66.986667 149.333333-149.333334V469.333333c0-211.712-172.245333-384-384-384z m298.666667 704c0 35.285333-28.714667 64-64 64-19.157333 0-64 0-64-85.333333v-42.666667h-85.333334v42.666667c0 47.061333-38.272 85.333333-85.333333 85.333333s-85.333333-38.272-85.333333-85.333333v-42.666667H341.333333v42.666667c0 78.72-33.024 85.333333-64 85.333333-35.285333 0-64-28.714667-64-64V469.333333c0-164.693333 134.016-298.666667 298.666667-298.666666s298.666667 133.973333 298.666667 298.666666v320z" p-id="4266" fill="#515151"></path><path d="M384 426.666667m-85.333333 0a85.333333 85.333333 0 1 0 170.666666 0 85.333333 85.333333 0 1 0-170.666666 0Z" p-id="4267" fill="#515151"></path><path d="M640 426.666667m-85.333333 0a85.333333 85.333333 0 1 0 170.666666 0 85.333333 85.333333 0 1 0-170.666666 0Z" p-id="4268" fill="#515151"></path></svg>